<svg width="102" height="30" viewBox="0 0 102 30" fill="none" xmlns="http://www.w3.org/2000/svg">
<g clip-path="url(#clip0_4353_3666)">
<path d="M72.0016 0V7.4996H94.5004V11.2494H77.6255C74.1096 11.2494 72 13.359 72 16.8749V30H102V22.5004H79.5012V18.7506H102V5.6255C102.002 2.10956 99.892 0 96.3761 0H72.0016Z" fill="#727275"/>
<path d="M35 3L47.2554 15.5L35 28H42.0717C43.2508 28 43.7212 27.7601 46.3147 25.1149C47.3182 24.0913 51.5 19.826 51.5 19.826C51.5 19.826 55.6173 24.0256 56.6853 25.1149C59.2788 27.7585 59.7492 28 60.9283 28H68L55.7446 15.5L68 3H60.9283C59.7492 3 59.2788 3.23988 56.6853 5.88512C56.0845 6.49796 51.5 11.174 51.5 11.174C51.5 11.174 47.1007 6.68691 46.3147 5.88512C43.7228 3.24152 43.2508 3 42.0717 3H35.0016H35Z" fill="#727275"/>
<path d="M0 0V7.4996H22.4988V11.2494H5.6255C2.10956 11.2494 0 13.359 0 16.8749V30H30V22.5004H7.4996V18.7506H29.9984V5.6255C29.9984 2.10956 27.8888 0 24.3729 0H0Z" fill="#727275"/>
</g>
<defs>
<clipPath id="clip0_4353_3666">
<rect width="102" height="30" fill="white"/>
</clipPath>
</defs>
</svg>
