<svg width="200" height="30" viewBox="0 0 200 30" fill="none" xmlns="http://www.w3.org/2000/svg">
<g clip-path="url(#clip0_4353_3670)">
<path d="M152.464 9.13039C152.266 9.021 152.037 8.97877 151.813 9.01004C151.589 9.04131 151.381 9.14439 151.221 9.30373L138.309 22.1697C138.131 22.3451 138.023 22.5781 138.003 22.8265C137.984 23.0748 138.054 23.3219 138.202 23.5229C138.349 23.7238 138.565 23.8652 138.808 23.9215C139.052 23.9776 139.307 23.9449 139.529 23.829L148.79 19.0289L147.941 22.6712C147.901 22.8072 147.89 22.9498 147.908 23.0902C147.926 23.2307 147.972 23.366 148.044 23.488C148.117 23.6099 148.213 23.7159 148.327 23.7995C148.442 23.8831 148.573 23.9424 148.711 23.9739C148.85 24.0054 148.993 24.0084 149.133 23.9828C149.273 23.9571 149.406 23.9032 149.524 23.8245C149.642 23.7458 149.742 23.644 149.82 23.5251C149.897 23.4063 149.949 23.273 149.973 23.1334L152.974 10.2698C153.024 10.0505 153.002 9.8208 152.909 9.6154C152.817 9.40994 152.661 9.23979 152.464 9.13039ZM149.217 17.1569C149.059 17.0309 148.867 16.9533 148.666 16.9336C148.465 16.9139 148.262 16.9529 148.083 17.0459L144.562 18.8694L150.114 13.3528L149.217 17.1569Z" fill="#727275"/>
<path d="M166.693 9.30429C166.498 9.10939 166.232 9 165.956 9C165.68 9 165.414 9.10939 165.219 9.30429L152.306 22.2165C152.11 22.4124 152 22.6782 152 22.9552C152 23.2323 152.11 23.4981 152.306 23.694C152.502 23.8899 152.768 24 153.045 24C153.322 24 153.588 23.8899 153.783 23.694L166.693 10.7818C166.791 10.6848 166.868 10.5697 166.92 10.4429C166.973 10.3162 167 10.1803 167 10.0431C167 9.90583 166.973 9.76995 166.92 9.64317C166.868 9.51638 166.791 9.40124 166.693 9.30429Z" fill="#727275"/>
<path d="M171.761 21.0658C171.735 20.9312 171.683 20.8031 171.608 20.6887C171.532 20.5743 171.435 20.4759 171.321 20.3992C171.208 20.3225 171.08 20.2689 170.946 20.2417C170.811 20.2143 170.673 20.2138 170.539 20.2401L165.202 21.2792L175.694 10.7835C175.89 10.5876 176 10.3218 176 10.0448C176 9.76767 175.89 9.50195 175.694 9.306C175.498 9.1101 175.232 9 174.955 9C174.678 9 174.412 9.1101 174.216 9.306L161.309 22.2186C161.162 22.3641 161.061 22.5501 161.021 22.7528C160.98 22.9556 161 23.1659 161.079 23.3569C161.158 23.548 161.293 23.7112 161.465 23.8257C161.637 23.9402 161.839 24.0009 162.046 24C162.113 24.0006 162.18 23.9944 162.246 23.9814L170.942 22.2882C171.076 22.2618 171.204 22.2093 171.318 22.1335C171.432 22.0578 171.529 21.9604 171.605 21.8468C171.681 21.7333 171.734 21.6059 171.761 21.4719C171.787 21.3378 171.788 21.1998 171.761 21.0658Z" fill="#727275"/>
<path d="M199.889 10.4946C199.829 10.3752 199.745 10.2688 199.643 10.1814C199.541 10.0941 199.422 10.0275 199.294 9.98559C199.166 9.94367 199.03 9.92714 198.895 9.93706C198.761 9.94693 198.629 9.98301 198.509 10.0432L180.081 19.2971L188.868 10.6075C189.046 10.4309 189.147 10.1913 189.147 9.94163C189.147 9.69191 189.046 9.45241 188.868 9.27578C188.689 9.09921 188.447 9 188.195 9C187.942 9 187.7 9.09921 187.521 9.27578L174.617 22.0327L162.629 28.0477C162.5 28.1018 162.382 28.1818 162.284 28.2828C162.186 28.3838 162.111 28.5035 162.063 28.6347C162.014 28.7658 161.993 28.9054 162.002 29.0448C162.01 29.1842 162.048 29.3204 162.111 29.4449C162.176 29.5693 162.265 29.6794 162.374 29.7682C162.483 29.857 162.609 29.9226 162.745 29.961C162.881 29.9993 163.023 30.0095 163.163 29.9911C163.303 29.9725 163.438 29.9257 163.559 29.8534L199.438 11.8601C199.68 11.7379 199.864 11.5256 199.949 11.2697C200.034 11.0137 200.012 10.735 199.889 10.4946Z" fill="#727275"/>
<path d="M146 6.00112C146 3.27127 144.368 0 136.595 0C126.112 0 116.49 6.54483 116.084 6.82466C115.872 6.98576 115.73 7.22138 115.689 7.48243C115.649 7.74343 115.712 8.00977 115.867 8.22607C116.021 8.44232 116.254 8.59187 116.517 8.64353C116.78 8.69519 117.054 8.64505 117.281 8.50349C117.373 8.43527 126.781 2.04739 136.595 2.04739C138.405 2.04739 143.917 2.04739 143.917 6.00112C143.917 13.7357 126.704 19.2955 117.448 21.4203L127.952 6.92244C128.034 6.81314 128.093 6.68879 128.126 6.55679C128.158 6.42475 128.164 6.28765 128.142 6.1535C128.12 6.0193 128.072 5.89074 127.999 5.77526C127.926 5.65978 127.83 5.55969 127.718 5.48088C127.606 5.40206 127.478 5.34609 127.343 5.31619C127.208 5.28624 127.069 5.28306 126.932 5.30668C126.796 5.33036 126.666 5.3804 126.55 5.45392C126.434 5.52744 126.334 5.62297 126.255 5.73497L114.193 22.3825C114.082 22.5357 114.016 22.716 114.003 22.9036C113.989 23.0911 114.028 23.2787 114.116 23.4458C114.204 23.6129 114.337 23.753 114.5 23.8508C114.664 23.9485 114.851 24.0002 115.043 24C115.109 24.0006 115.176 23.9945 115.242 23.9818C120.392 22.9256 125.452 21.4805 130.375 19.6595C140.743 15.7399 146 11.1469 146 6.00112Z" fill="#727275"/>
<path fill-rule="evenodd" clip-rule="evenodd" d="M33.3612 11.5194H41.0797C42.6576 11.5194 43.9955 12.2313 44 13.8694V19.8843C44 21.5234 42.6643 22.343 41.0797 22.343H33.3612V27H28.657V22.343H20.943C19.3583 22.343 18 21.5234 18 19.8843V13.8694C18 12.2313 19.3583 11.5194 20.943 11.5194H28.657V6H33.3612V11.5194ZM23.7524 20.316H28.657V13.3739H23.7524C23.0868 13.3739 22.5073 13.7397 22.5073 14.5373V19.1306C22.5073 19.9711 23.0834 20.316 23.7524 20.316ZM38.2216 20.316C38.9347 20.316 39.5142 19.9711 39.5142 19.1306V14.5373C39.5142 13.7397 38.9347 13.3739 38.2216 13.3739H33.3612V20.316H38.2216Z" fill="#727275"/>
<path fill-rule="evenodd" clip-rule="evenodd" d="M14.0574 12H0.0462375V13.8843H10.9536C11.7005 13.8843 12.3312 14.169 12.3312 14.9571V15.5052H2.94261C0.957949 15.5052 0 16.4909 0 17.8494V20.5441C0 21.9016 0.957949 23 2.94261 23H17V14.2125C17 12.6575 15.6923 12 14.0574 12ZM12.33 20.9159H6.16502C4.88102 20.9159 4.66999 20.4995 4.66999 19.8431V18.5035C4.66999 17.8461 5.04345 17.4297 6.16502 17.4297H12.33V20.9159Z" fill="#727275"/>
<path d="M51.8381 19.6772C51.875 19.1774 51.8812 18.676 51.8566 18.1755V12H47V23H51.9037L59.2147 15.296C59.1757 15.7727 59.1429 16.5085 59.1429 17.0824V23H64V12H59.1429L51.8381 19.6772Z" fill="#727275"/>
<path fill-rule="evenodd" clip-rule="evenodd" d="M92.046 12H106.057C107.696 12 109 12.6575 109 14.2125V23H94.7088C92.9576 23 92 21.7721 92 20.5441V17.8494C92 16.4909 93.0042 15.5052 94.7088 15.5052H104.331V14.9571C104.331 14.169 103.7 13.8843 102.953 13.8843H92.046V12ZM98.025 20.9159H104.33V17.4331H98.025C97.0446 17.4331 96.6701 17.9153 96.6701 18.5069V19.8867C96.6701 20.2372 96.8812 20.9159 98.025 20.9159Z" fill="#727275"/>
<path d="M86.1557 20.94H80.3414V12H75.5426V20.94H69.7988V12H65V23H91V12H86.1557V20.94Z" fill="#727275"/>
</g>
<defs>
<clipPath id="clip0_4353_3670">
<rect width="200" height="30" fill="white"/>
</clipPath>
</defs>
</svg>
