<svg width="166" height="30" viewBox="0 0 166 30" fill="none" xmlns="http://www.w3.org/2000/svg">
<g clip-path="url(#clip0_4353_3683)">
<path fill-rule="evenodd" clip-rule="evenodd" d="M74.4743 7.05848V7.49903L70.2119 15.8811H69.7622L65.4998 7.49903V7.05848H62.8075V22.0566H65.4998V13.2243L69.0896 20.2905H70.8845L74.4743 13.232V22.0546H77.1666V7.05848M49.3497 7.05848V22.0566H59.2197V19.4094H52.0421V15.8811H58.3222V13.2339H52.0421V9.70566H59.2197V7.05848M80.7544 7.05848V22.0566H83.4468V9.70566H89.7269V22.0566H92.4193V7.05848M43.0696 13.2339C42.2444 13.6494 41.1046 14.117 39.9295 14.117C38.0446 14.117 36.7894 13.3132 36.7894 11.4698V7.05848H34.0971V11.4698C34.0971 14.5923 36.3768 16.7641 39.9295 16.7641C41.3646 16.7641 42.397 16.2521 43.0696 15.8811V22.0566H45.7619V7.05848H43.0696V13.2339ZM135.491 13.2339H129.211V7.05848H126.518V22.0566H129.211V15.8811H135.491V22.0566H138.183V7.05848H135.491M154.333 7.05848V9.70566H158.82V22.0566H161.513V9.70566H166V7.05848M104.983 7.49903L98.9262 16.7622H98.7014V7.05655H96.009V22.0546H98.7014V21.6141L104.759 12.3509H104.983V22.0566H107.676V7.05848H104.983M146.258 7.05848L140.426 22.0566H143.566L144.911 18.5283H150.296L151.641 22.0566H154.781L148.949 7.05848H146.256H146.258ZM145.808 15.8811L147.496 10.5868H147.721L149.408 15.8811H145.81H145.808ZM117.096 6.88265C114.216 6.88265 112.583 8.16179 111.846 9.70566C111.434 10.579 111.264 11.5664 111.264 12.3528V16.7641C111.264 17.5486 111.434 18.5379 111.846 19.4113C112.581 20.9552 114.216 22.2343 117.096 22.2343C119.976 22.2343 121.609 20.9552 122.346 19.4113C122.758 18.5379 122.928 17.5506 122.928 16.7641V12.3528C122.928 11.5683 122.758 10.579 122.346 9.70566C121.611 8.16179 119.968 6.88265 117.096 6.88265ZM120.236 16.3236C120.236 16.7467 120.209 17.6472 120.011 18.0877C119.519 19.1988 118.621 19.5871 117.094 19.5871C115.567 19.5871 114.672 19.1988 114.179 18.0877C113.981 17.6472 113.954 16.7467 113.954 16.3236V12.7953C113.954 12.3722 113.981 11.4717 114.179 11.0312C114.672 9.92013 115.569 9.53175 117.094 9.53175C118.619 9.53175 119.517 9.92013 120.011 11.0312C120.209 11.4717 120.236 12.3722 120.236 12.7953V16.3236ZM0 0V16.4376C0 19.2529 0.592431 21.502 1.83008 23.1966C4.53024 26.9026 9.56493 29.3025 12.5623 30C15.5499 29.3025 20.5845 26.9026 23.2945 23.1966C24.5419 21.502 25.1246 19.2529 25.1246 16.4376V0H0ZM23.1146 16.4376C23.1146 18.8896 22.6297 20.7426 21.6423 22.101C20.5826 23.5482 18.9774 24.924 16.985 26.0795C15.5401 26.9181 13.9251 27.6233 12.5623 28.0021C11.1975 27.6233 9.57471 26.9161 8.13958 26.0795C6.14721 24.9143 4.54197 23.5386 3.48224 22.0913C2.49486 20.7407 2.00996 18.8896 2.00996 16.4357V1.92258H23.1146V16.4453V16.4357V16.4376Z" fill="#727275"/>
<path opacity="0.6" fill-rule="evenodd" clip-rule="evenodd" d="M4 18C4.06734 19.8065 4.40952 21.1969 5.01924 22.1428C6.43162 24.3207 8.94514 26.044 11 27V19.502H7.25793C5.98752 19.502 4.64431 19.0392 4 18.0101" fill="#727275"/>
<path fill-rule="evenodd" clip-rule="evenodd" d="M8.74957 16.2651H11.4989C12.2753 16.2651 13.1333 16.0601 13.4991 15.8049V25C15.7056 24.1245 18.3927 22.541 19.8929 20.5515C20.6245 19.5809 21 18.1018 21 16.1533V4H13.4991V10.941C13.4991 11.6377 13.2579 11.8687 12.499 11.8687H11.4989C10.7401 11.8687 10.4988 11.6396 10.4988 10.941V4H4V11.8687C4 14.4879 5.11686 16.2669 8.74957 16.2669V16.2651Z" fill="#727275"/>
</g>
<defs>
<clipPath id="clip0_4353_3683">
<rect width="166" height="30" fill="white"/>
</clipPath>
</defs>
</svg>
