<svg width="93" height="30" viewBox="0 0 93 30" fill="none" xmlns="http://www.w3.org/2000/svg">
<g clip-path="url(#clip0_4353_3689)">
<path d="M86.4291 13.3993C86.2765 13.7753 86.1238 14.1136 85.9712 14.3015C85.628 14.4519 85.2464 14.4895 84.9032 14.4143C81.3931 13.3241 80.7446 11.1438 81.0115 8.88827C81.851 9.64011 82.6142 10.392 83.4532 11.1062V10.2416C83.1863 9.97843 82.9574 9.75292 82.6905 9.52735C82.5378 9.18903 82.6142 8.73791 82.8426 8.47479C83.7585 10.1664 84.9411 11.8204 86.4291 13.3993ZM92.2283 5.54261C91.9231 5.58016 91.6941 5.61777 91.3504 5.65537C91.3125 6.29446 91.2741 6.9711 91.2362 7.61014C89.8629 7.7605 88.2603 6.10649 87.0013 4.41483C83.9874 1.06914 82.4995 1.18192 80.7446 4.86592C78.8751 5.09148 78.3408 6.36961 78.1119 7.61014H77.5018C77.4255 8.39959 77.3492 9.22659 77.2729 10.016C77.5018 10.0536 77.8071 10.1288 78.0356 10.1664C78.1119 11.6325 79.3709 13.0234 81.7747 14.4143V14.7902C78.8371 18.2487 75.8991 21.7072 73 25.1656C73.1142 25.9175 73.229 26.6317 73.3811 27.3836C74.5638 27.7595 75.4033 28.3234 76.0518 29C78.8371 26.9325 81.3552 24.5641 83.6821 22.0079C83.6442 21.82 83.5295 21.4816 83.4916 21.2936C82.5758 22.271 81.7363 23.3612 80.8209 24.3386C80.7062 24.1883 80.592 24.0378 80.4773 23.8875C80.8972 23.4364 81.3552 22.9477 81.7747 22.4966C81.8889 22.1958 81.66 21.7448 81.7747 21.4064C82.881 20.1659 83.8348 19.0757 85.2843 15.9932C85.5133 16.0308 85.857 16.0684 86.0859 16.106C86.2386 15.6924 86.3528 15.2789 86.5054 14.8654C86.7344 14.8654 86.9249 14.8278 87.1539 14.8278C88.2223 17.2337 88.0697 22.9477 88.1076 27.4588C88.2603 27.4588 88.4513 27.4963 88.6039 27.4963C88.7561 26.1054 88.8708 24.7521 89.0234 23.3612H89.5956C89.5577 24.8649 89.4814 26.3686 89.443 27.9098C90.1677 27.8722 90.8546 27.8347 91.5794 27.7971C93.1057 18.2863 93.5253 11.219 92.2283 5.54261Z" fill="#727275"/>
<path d="M74.8849 17.6393C75.9627 14.3115 76.3344 10.4351 75.6653 5.86382C73.9558 5.05926 73.0266 3.48676 73.2866 1C70.871 2.17024 71.5028 5.68097 70.7223 11.4956C69.1984 20.2724 66.448 26.1967 61.9137 25.7213C61.4676 20.5649 61.6538 15.7011 61.9511 10.947C62.1368 10.9104 62.3224 10.9104 62.5085 10.8739C62.3968 9.30137 62.2855 7.76545 62.1737 6.19294C61.765 6.15636 61.2446 6.0832 60.8359 6.01009C60.2411 7.18031 59.5351 8.27742 58.3086 9.11852C58.2716 7.69229 58.4573 6.59522 58.829 5.46154C58.9403 4.91299 59.2377 4.62043 59.6838 4.40101C60.0555 4.10845 60.1668 3.70618 60.1668 3.37705C59.7581 3.34048 59.3864 3.26734 58.9777 3.23077C55.8186 13.5069 56.9708 19.797 58.7916 25.5385C58.9777 26.0139 59.2007 26.3796 59.3864 26.599C60.6503 27.7692 62.1368 28.9029 63.5489 30C66.0393 29.8171 67.5258 28.6469 68.3063 26.7818C68.1206 26.7818 67.8976 26.7453 67.7119 26.7453V27.5498C67.2659 27.5864 66.7454 27.6595 66.2993 27.6961C67.6376 25.575 68.418 23.3442 69.4584 21.3695C69.7932 20.7478 70.5736 20.2358 70.9454 20.0164C70.9454 20.8575 70.908 21.6986 70.908 22.5397C70.5736 22.7592 70.3132 23.0151 69.9789 23.2345C69.9419 24.0025 69.7932 24.8436 69.7558 25.6481H70.2388C70.3506 25.2459 70.4993 24.7705 70.6106 24.3317C70.908 24.2219 71.2054 24.1488 71.5397 24.0391C71.5771 24.5876 71.614 25.1362 71.6884 25.6847C72.0975 25.7579 72.5432 25.831 72.9892 25.9042C72.7293 24.2219 72.7293 22.5763 73.1379 21.0038C73.361 20.8575 73.5471 20.7478 73.6953 20.7112C73.7327 21.0038 73.8071 21.2963 73.844 21.5523H74.3644C74.3644 20.3821 74.4019 19.2119 74.4019 18.0416C74.5131 17.9319 74.6992 17.7856 74.8849 17.6393Z" fill="#727275"/>
<path d="M55.0726 19.0214C55.7287 15.7574 56.2023 12.2464 55.9135 7.96232C55.4099 7.72088 54.5861 7.48503 54.4035 7.23804C54.1407 6.49202 53.8775 5.71027 53.6156 5C53.2968 5.11279 52.9416 5.19047 52.6227 5.30326C51.7061 7.92841 51.7608 11.0728 51.8886 14.2874C51.8213 16.5761 50.7944 16.9514 49.4606 16.1168C48.9216 15.876 48.2718 15.4227 47.5879 15.0415C46.926 11.8362 48.1377 9.77776 48.0924 7.20507C47.8686 6.63711 47.543 6.35683 46.7941 6.33417C46.33 6.30648 45.8673 6.35029 45.4397 6.35777C45.1189 6.36333 44.9107 6.68867 44.8807 7.01088C44.6318 9.08824 44.6343 11.2685 44.2428 13.3484C43.8345 14.4635 43.0322 15.4783 42.3369 16.4912C42.6214 16.4505 42.9059 16.4098 43.1548 16.3697C43.5093 16.2563 43.6219 16.576 43.6637 16.9327C43.6687 17.2186 43.7094 17.5038 43.7138 17.7539C43.5355 17.7571 43.4293 17.7946 43.251 17.7977C43.2473 17.5833 43.2079 17.3696 43.1685 17.1558L42.7408 17.1633C42.8684 18.3406 42.8821 19.1267 42.7908 20.0218C42.5657 21.4197 42.3062 22.8896 42.1917 24.5001C41.9454 24.683 41.6996 24.9018 41.4533 25.0848C41.4445 24.5845 41.472 24.1194 41.4276 23.6198L41 23.6273C41.085 24.4121 41.2057 25.1963 41.3263 25.9806C41.8628 26.0784 42.3993 26.1763 42.9364 26.3099C43.9617 29.902 46.747 30.1751 46.5573 25.4247C46.478 22.9241 46.7273 20.8825 49.2916 20.7306C49.1741 20.125 49.0552 19.448 48.9023 18.843C49.7598 18.971 50.7289 19.3473 51.9209 20.2201C52.1379 20.395 52.2505 20.7147 52.3299 21.178C52.5698 22.675 52.7743 24.1726 53.0501 25.669C53.4802 25.8045 53.9452 25.9036 54.3753 26.0391C54.3731 23.8588 54.4062 21.6779 54.4044 19.5334C54.6874 19.4213 55.0054 19.237 55.0726 19.0214Z" fill="#727275"/>
<path d="M35.6287 14.082C35.2341 14.1833 34.8388 14.3207 34.4442 14.4221C34.6045 13.4146 34.711 11.3958 34.8907 11.3268C35.68 11.1242 36.2388 13.9123 35.6287 14.082ZM40.6423 15.3608C40.7494 15.3627 40.8572 15.3285 41 15.331C39.905 10.5129 40.5751 4.82374 38.4791 0.0602046L35.0515 0C33.7287 6.255 31.2734 11.9128 30.1309 18.0627C29.9142 18.2032 29.6981 18.3077 29.4814 18.4482C29.4701 17.0408 29.5308 15.5986 29.4838 14.1906C29.1568 14.5096 28.7228 14.8267 28.3958 15.1457C27.7776 19.8976 27.9844 24.4476 28.334 29C29.6601 28.7346 31.0914 28.5794 32.6617 28.643C33.0795 23.0938 32.4567 15.7583 36.4869 16.0816C36.9448 18.5071 37.2963 20.8947 37.7542 23.3202C38.3317 22.9695 38.8729 22.6543 39.4505 22.3036C39.3621 21.2196 39.3452 20.1369 39.2568 19.0529C39.4335 19.1642 39.6108 19.2395 39.7874 19.3509C39.887 19.7856 39.9509 20.2197 40.0505 20.6544C40.1952 20.5487 40.3399 20.443 40.4852 20.3013C40.5497 18.6426 40.6142 16.984 40.6423 15.3608Z" fill="#727275"/>
<path d="M28.9152 11.5343C28.9521 11.2699 29.0627 11.0056 28.9521 10.5902C28.4359 8.55104 27.9197 6.51188 27.4035 4.47273C23.3107 3.71748 23.1632 8.36223 20.1029 11.4587C19.771 8.55104 18.923 6.70069 17.5218 6.24757C17.5956 5.64336 17.5218 5.07692 17.3006 4.47273C17.1531 4.47273 16.9688 4.47273 16.8213 4.51049C16.8213 4.01958 16.8581 3.49091 16.8581 3H15.9732C15.9732 3.26434 15.9732 3.56643 16.0101 3.83077C16.1576 3.83077 16.2313 3.83077 16.3419 3.86853C16.2313 9.19303 14.7933 10.7413 12.4335 9.79719C10.7006 14.442 10.6268 19.9175 10 25.0154C10.4056 25.0531 10.8112 25.1287 11.2168 25.1665C11.2168 26.979 12.581 28.4895 13.5028 30C15.7889 28.6406 15.2358 20.0685 16.6369 15.6126C16.8581 15.6126 17.0794 15.6503 17.3006 15.6503C17.4849 17.8406 17.6693 20.0308 17.8537 22.221C18.923 22.5609 19.9922 22.8629 21.0984 23.2028C22.3889 16.2923 23.7163 11.572 26.7398 11.3455C26.8135 14.1021 26.8873 16.8965 26.961 19.6532C26.961 20.3706 27.6616 20.1441 27.7353 19.6532C27.9197 16.8588 28.1409 14.1399 28.9152 11.5343Z" fill="#727275"/>
<path d="M3.28814 23.6428C3.08475 23.9407 3.05085 24.3131 3.08475 24.76C3.11865 25.2069 3.22034 25.5793 3.49153 25.84C3.55933 25.8027 3.59322 25.691 3.62712 25.4676C3.66102 25.7655 3.69492 26.2497 4.0339 26.2497C4.33897 26.2124 4.20339 25.6165 4.37287 25.5048C4.40678 25.6165 4.50849 25.989 4.61017 25.9518C5.11866 25.1697 5.08475 23.68 4.61017 23.531C4.50849 23.6428 4.44068 24.1642 4.40678 24.5738C4.37287 23.978 4.3051 23.6428 4.3051 23.3076C4.2712 23.1214 4 23.0469 3.69492 23.2703C3.52543 23.4938 3.59322 24.2759 3.49153 24.7228C3.45763 24.3876 3.42373 24.0524 3.35593 23.68C3.35593 23.6055 3.32204 23.6055 3.28814 23.6428ZM3.52543 16.6041C3.52543 16.9021 3.52543 17.2745 3.55933 17.5724C3.66102 17.6841 4 17.6841 4.23729 17.6097C4.50849 17.4979 4.64407 17.3862 4.67798 17.0511C4.67798 16.7159 4.40678 16.5669 4.1017 16.4924C3.96611 16.4552 3.83051 16.4552 3.66102 16.4924C3.59322 16.4924 3.55933 16.5297 3.52543 16.6041ZM5.59324 3.45793C5.59324 3.75586 5.59324 4.09101 5.62711 4.38897C5.45762 3.97931 5.18643 4.16551 5.15256 4.38897C5.15256 5.24551 5.11866 6.1393 5.11866 6.99584C5.08475 7.29381 5.01694 7.48001 4.94917 7.66622C4.94917 6.80964 4.98304 5.91585 4.91527 5.13381C4.84746 5.09656 4.74579 5.13381 4.67798 5.13381C3.93221 5.99035 3.18644 6.88414 2.44068 7.74068C2.37288 7.81518 2.27119 7.74068 2.27119 7.62897C2.27119 6.17656 2.27119 4.76139 2.30509 3.30897C2.57627 3.30897 2.81356 3.30896 3.08475 3.27172C3.11865 3.71862 3.11865 4.12826 3.15255 4.57518C3.18645 5.09656 3.42373 5.24551 3.59322 5.05931C3.93221 4.50068 4.2712 3.97931 4.61017 3.42069C4.84746 3.42069 5.11866 3.42069 5.35595 3.42069C5.45762 3.42069 5.49153 3.34621 5.59324 3.34621C5.59324 3.34621 5.59324 3.42069 5.59324 3.45793ZM2.98305 10.3848C2.98305 11.0179 2.98305 11.6883 3.01695 12.3214C2.98305 12.3959 2.94916 12.4703 2.91526 12.5448C2.91526 11.6138 2.91526 10.72 2.91526 9.78897C2.91526 9.67726 2.98305 9.60276 3.08475 9.60276C3.25424 9.60276 3.42373 9.60276 3.59322 9.60276C3.62712 9.60276 3.69492 9.67726 3.72882 9.67726C4.20339 9.67726 4.64407 9.67726 5.11866 9.67726C5.15256 10.0496 5.15256 10.4593 5.18642 10.869C5.08475 10.6083 4.94917 10.3848 4.84746 10.3848H4C3.93221 10.3848 3.86441 10.4593 3.86441 10.5338C3.89831 11.6883 3.93221 12.88 3.93221 14.0345C3.96611 14.0717 4 14.1462 4.0339 14.1835C4.1017 14.1835 4.20339 14.1835 4.2712 14.1835C4.3051 14.2207 4.3051 14.2207 4.33901 14.2579C3.89831 14.2579 3.42373 14.2579 2.98305 14.2579C2.94916 14.2207 2.91526 14.1835 2.88136 14.1835C3.15255 14.0717 3.38983 13.8855 3.55933 13.5876C3.52543 12.6193 3.49153 11.6511 3.49153 10.72C3.38983 10.6083 3.15255 10.4221 2.98305 10.3848ZM2.64407 16.3062C2.64407 16.2317 2.64407 16.1573 2.67797 16.12C3.42373 16.12 4.50849 16.0828 4.94917 16.2317C5.38986 16.4552 5.45762 16.9393 5.38986 17.4235C5.28814 18.3173 4.57626 18.6152 3.66102 18.6524C3.62712 18.6524 3.59322 18.6897 3.59322 18.7641C3.55933 19.2483 3.52543 19.7697 3.52543 20.2538C3.49153 20.5145 3.08475 20.44 3.08475 20.1793C3.08475 18.9503 3.11865 17.8331 3.11865 16.6041C3.01695 16.4924 2.81356 16.4179 2.64407 16.3062ZM2.64407 24.5738C2.64407 23.3076 3.25424 22.3021 4.0339 22.3021C4.81355 22.3021 5.42372 23.3076 5.42372 24.5738C5.42372 25.84 4.81355 26.8455 4.0339 26.8455C3.28814 26.8455 2.64407 25.8027 2.64407 24.5738ZM8 26.2869V2.7131C8 1.78207 7.28816 1 6.4068 1H1.59322C0.711864 1 0 1.78207 0 2.7131V26.2869C0 27.218 0.711864 28 1.59322 28H6.4068C7.28816 28 8 27.2552 8 26.2869Z" fill="#727275"/>
</g>
<defs>
<clipPath id="clip0_4353_3689">
<rect width="93" height="30" fill="white"/>
</clipPath>
</defs>
</svg>
