<svg width="105" height="30" viewBox="0 0 105 30" fill="none" xmlns="http://www.w3.org/2000/svg">
<g clip-path="url(#clip0_4353_3687)">
<path fill-rule="evenodd" clip-rule="evenodd" d="M35.8187 0.516256C35.9238 0.304209 36.0848 0.0921607 36.1758 0.0497512C36.2739 0.000273365 36.407 -0.0138632 36.491 0.0144099C36.813 0.13457 36.8691 0.25473 39.4389 6.66564C43.3741 16.4834 43.6963 17.2397 44.2845 18.0244C44.4315 18.2222 44.6766 18.4908 44.8237 18.6038C45.1037 18.8301 45.6638 19.0351 45.9931 19.0351C46.196 19.0351 46.4062 19.1976 46.4062 19.3532C46.4062 19.4097 46.3361 19.5015 46.2521 19.5582C46.112 19.6571 45.6779 19.6712 42.905 19.6712C39.719 19.6712 39.2499 19.6359 39.1659 19.4238C39.1098 19.2613 39.1939 19.1057 39.3619 19.0775C40.2581 18.915 40.3562 18.8866 40.4753 18.7453C40.5383 18.6605 40.5943 18.5544 40.5943 18.5049C40.5943 18.3354 38.6266 13.2108 38.5426 13.1543C38.4306 13.0836 32.9479 13.0836 32.8359 13.1543C32.7307 13.225 31.3374 16.8581 31.1343 17.5861C30.9522 18.2505 30.9593 18.5544 31.1693 18.7947C31.3163 18.9786 31.3863 18.9927 31.9536 19.028C32.2966 19.0563 32.6187 19.0987 32.6677 19.1269C32.8008 19.2189 32.7658 19.5157 32.6188 19.6006C32.5278 19.643 31.4354 19.6712 29.5378 19.6712H26.5899L26.4847 19.5015C26.2747 19.1835 26.4007 19.0845 27.115 18.9998C27.5982 18.9432 28.1513 18.6534 28.4384 18.3213C28.5715 18.1657 28.7885 17.8052 28.9216 17.5296C29.0546 17.2468 30.6231 13.3946 32.4016 8.96282C34.1803 4.53102 35.7207 0.728303 35.8187 0.516256ZM38.0524 11.6841L36.9111 8.567C36.2879 6.84941 35.7557 5.43575 35.7417 5.42162C35.7068 5.38629 35.6087 5.63367 34.2923 9.13246C33.7951 10.4754 33.382 11.5922 33.382 11.6275C33.382 11.6558 34.4323 11.6841 35.7207 11.6841H38.0524ZM4.71488 0.601075C4.74289 0.473847 4.81992 0.290072 4.89694 0.191116C5.10001 -0.0633409 5.40111 -0.0209314 5.66018 0.304209C5.76522 0.438505 7.40373 3.74645 9.30135 7.65519C11.1919 11.5639 12.7534 14.7659 12.7604 14.78C12.7674 14.7871 13.2366 13.8328 13.7968 12.6595C18.6773 2.46003 19.6787 0.38196 19.7976 0.21232C19.8957 0.0780241 20.0078 0.0214781 20.1479 0.0214781C20.3859 0.0214781 20.5329 0.148706 20.631 0.45971C20.673 0.586938 21.2401 4.33311 21.8983 8.78611C22.5565 13.2391 23.1377 17.0771 23.1938 17.3104C23.3408 17.9677 23.5019 18.307 23.761 18.5332C24.0061 18.7524 24.7763 19.0351 25.1193 19.0351C25.4694 19.0351 25.6935 19.1552 25.6655 19.332C25.6235 19.6571 25.4975 19.6712 22.0665 19.6712C19.2935 19.6712 18.8243 19.6571 18.7473 19.5652C18.6213 19.4097 18.7193 19.1128 18.9084 19.0775L18.942 19.0704C19.8891 18.8725 19.9033 18.8695 19.9587 18.6109C20.0007 18.4272 19.8186 16.9287 19.2725 12.9564C18.8664 9.98065 18.5093 7.41487 18.4813 7.25229C18.4322 6.95544 18.4253 6.96957 16.8568 10.221C13.2646 17.692 12.3893 19.445 12.2073 19.5652C11.8221 19.8196 11.7451 19.7136 10.4637 17.268C9.28734 15.0274 8.12496 12.6524 6.73153 9.69085C6.12233 8.37616 5.60417 7.30178 5.58316 7.30178C5.54114 7.30178 4.27374 16.9711 4.20372 17.7628C4.1337 18.6817 4.37177 18.9078 5.59016 19.0351C5.93326 19.0704 6.24137 19.1199 6.28338 19.1411C6.40242 19.2189 6.36041 19.5229 6.22036 19.6006C6.12934 19.643 5.04398 19.6712 3.17439 19.6712C0.324486 19.6712 0.261467 19.6712 0.11442 19.5229C0.0373956 19.445 -0.01162 19.339 0.00238447 19.2966C0.0514 19.1411 0.359498 19.0351 0.751622 19.0351C1.47285 19.0351 1.82997 18.71 2.03304 17.89C2.09605 17.6426 2.71225 13.7056 3.41247 9.13953C4.10568 4.57343 4.69388 0.728303 4.71488 0.601075ZM84.1201 0.367823C84.1762 0.25473 84.2742 0.13457 84.3372 0.0992289C84.5403 -0.0209314 84.6452 0.00734161 84.8764 0.25473C85.0165 0.410232 86.3609 3.10323 88.5595 7.64105C90.4642 11.571 92.0396 14.7871 92.0606 14.7941C92.0816 14.7941 93.6572 11.5286 95.5618 7.53503C98.1315 2.16316 99.0839 0.240594 99.224 0.141638C99.378 0.0214781 99.441 0.00734161 99.5811 0.0780241C99.679 0.120434 99.805 0.247662 99.8611 0.360755C99.9241 0.487983 100.463 3.92315 101.199 8.86387C101.871 13.43 102.473 17.3528 102.536 17.5861C102.69 18.1798 102.942 18.5827 103.25 18.7453C103.607 18.9291 104.252 19.1057 104.546 19.1057C104.798 19.1057 105.043 19.2684 104.994 19.4167C104.917 19.6571 104.672 19.6712 101.346 19.65C98.3486 19.6359 98.0546 19.6288 97.9916 19.5157C97.8725 19.332 98.1105 19.1199 98.4957 19.0704C99.1329 18.9786 99.273 18.8795 99.273 18.4837C99.2799 18.1374 97.7885 7.20989 97.7324 7.13921C97.7045 7.11094 96.388 9.78273 94.7985 13.0765C93.209 16.3703 91.8226 19.1976 91.7176 19.3532C91.5565 19.5935 91.4935 19.6359 91.2904 19.6359C90.9752 19.6359 90.9193 19.5441 89.6728 17.1479C88.4475 14.8012 87.4461 12.7726 86.0038 9.69085C85.3876 8.38322 84.8764 7.32299 84.8623 7.33712C84.7993 7.40073 83.5179 17.5366 83.5179 17.996C83.5179 18.4837 83.5389 18.5685 83.686 18.717C83.8891 18.9221 84.2322 19.021 84.9184 19.0775C85.6816 19.1481 85.8917 19.3108 85.5346 19.5582C85.4015 19.6571 84.9814 19.6712 82.4327 19.6712C79.3657 19.6712 79.3166 19.6642 79.3166 19.3744C79.3166 19.1976 79.4917 19.134 80.0728 19.0845C80.3669 19.0634 80.668 18.9927 80.759 18.9291C80.9901 18.7806 81.1862 18.4484 81.3122 18.0103C81.3683 17.8123 81.9984 13.8116 82.7127 9.11125C83.4339 4.41087 84.0642 0.473847 84.1201 0.367823ZM46.6652 0.954488C46.5952 0.806055 46.6093 0.763645 46.7492 0.650552C46.9033 0.523324 47.0853 0.516256 50.3974 0.516256C54.0806 0.516256 54.3186 0.537461 54.3186 0.827259C54.3186 1.04637 54.1856 1.1524 53.8985 1.1524C53.5694 1.1524 53.1633 1.27256 53.0582 1.39979C52.9322 1.54822 53.0582 1.85922 53.5974 2.75689C54.4027 4.09986 56.7835 7.73294 56.8465 7.71174C56.9725 7.66932 60.0675 3.06083 60.3826 2.45296C60.6766 1.88043 60.7047 1.49167 60.4525 1.32911C60.3616 1.26549 60.0605 1.19481 59.7804 1.1736C59.3252 1.13826 59.0802 1.03224 59.0802 0.876737C59.0802 0.848464 59.1222 0.763645 59.1782 0.685894C59.2763 0.558665 59.4023 0.551598 62.0701 0.530393C65.046 0.516256 65.1861 0.530393 65.2281 0.855532C65.2562 1.04637 65.109 1.10999 64.4159 1.21601C63.7506 1.32204 63.4355 1.48461 63.0505 1.94404C62.8054 2.24091 58.0649 8.86387 57.8687 9.18901C57.8408 9.23848 58.709 10.5956 59.9975 12.5111C63.5405 17.7699 63.7436 18.0456 64.2338 18.4272C64.6469 18.7453 65.2211 18.9644 65.7952 19.0139C66.0474 19.0351 66.3135 19.0845 66.3835 19.1199C66.5445 19.2047 66.5376 19.5086 66.3694 19.6006C66.2784 19.643 64.9691 19.6712 62.6023 19.6712C59.4303 19.6712 58.9541 19.6571 58.8141 19.5582C58.6391 19.4309 58.611 19.2331 58.7651 19.1057C58.821 19.0563 59.0942 18.9927 59.3673 18.9644C59.9765 18.8937 60.1165 18.7877 60.0114 18.4555C59.8994 18.0809 56.0832 12.087 55.9642 12.087C55.8942 12.087 52.3651 17.5013 52.148 17.9395C51.7909 18.6746 51.9239 18.9503 52.6521 19.028C53.3033 19.0987 53.5274 19.3178 53.1843 19.5582C53.0513 19.6571 52.6521 19.6712 50.2783 19.6712C47.8766 19.6712 47.5194 19.6571 47.4285 19.5582C47.1903 19.3249 47.3514 19.1199 47.8416 19.028C48.3807 18.9291 48.927 18.6181 49.375 18.1586C49.6972 17.8264 53.5344 12.5606 54.8017 10.7087L54.9628 10.4684L52.337 6.49599C49.4802 2.17022 49.2561 1.89456 48.4088 1.50582C48.1497 1.38566 47.7086 1.26549 47.3514 1.20894C46.8193 1.13119 46.7282 1.10292 46.6652 0.954488ZM68.3441 0.996897C68.1971 0.834327 68.2811 0.650552 68.5402 0.57987C68.6312 0.551598 70.2557 0.530393 72.1393 0.523324C75.7034 0.516256 75.8855 0.530393 75.9416 0.813122C75.9836 1.02517 75.7734 1.13119 75.2133 1.1736C74.1419 1.26549 73.9459 1.49874 73.8548 2.79223C73.7708 3.94436 73.7708 15.197 73.8548 16.7732C73.9249 18.1374 73.9879 18.4414 74.2259 18.6676C74.45 18.8795 74.7442 18.9574 75.5703 19.0139C75.9555 19.0351 76.3407 19.0845 76.4316 19.1128C76.6278 19.1905 76.6347 19.4167 76.4316 19.5582C76.2917 19.6571 75.7944 19.6712 72.4474 19.6712C68.8553 19.6712 68.6102 19.6642 68.4631 19.5441C68.3512 19.4521 68.3161 19.3744 68.3512 19.2613C68.4071 19.0987 68.4982 19.0704 69.3244 18.9998C70.1787 18.915 70.3047 18.6888 70.4238 17.0065C70.5149 15.7483 70.5149 3.29408 70.4238 2.50243C70.3118 1.5058 70.0457 1.25135 69.0304 1.1736C68.6032 1.14533 68.4352 1.10292 68.3441 0.996897ZM42.0893 29.8005C42.3722 29.9335 42.6861 30 43.031 30C43.3625 30 43.6676 29.9357 43.9461 29.8072C44.2291 29.6786 44.4722 29.5035 44.6756 29.2819C44.8834 29.0558 45.0448 28.8009 45.1597 28.5172C45.2746 28.229 45.3321 27.9298 45.3321 27.6195C45.3321 27.3181 45.2769 27.0255 45.1663 26.7418C45.0558 26.4581 44.9011 26.201 44.7021 25.9704C44.5032 25.7399 44.2622 25.556 43.9793 25.4185C43.7007 25.2811 43.3913 25.2124 43.0509 25.2124C42.7149 25.2124 42.4054 25.2789 42.1224 25.4119C41.8439 25.5405 41.6007 25.7178 41.393 25.9438C41.1896 26.1655 41.0282 26.4204 40.9089 26.7085C40.7939 26.9922 40.7364 27.2915 40.7364 27.6062C40.7364 27.9076 40.7917 28.2024 40.9022 28.4906C41.0127 28.7743 41.1675 29.0314 41.3664 29.2619C41.5698 29.488 41.8107 29.6675 42.0893 29.8005ZM41.7577 28.198C41.6958 28.0074 41.6649 27.8101 41.6649 27.6062C41.6649 27.4112 41.6936 27.2205 41.7511 27.0344C41.813 26.8482 41.9014 26.6797 42.0163 26.529C42.1313 26.3783 42.2728 26.2586 42.4408 26.1699C42.6132 26.0768 42.8121 26.0303 43.0376 26.0303C43.2498 26.0303 43.4399 26.0746 43.6079 26.1633C43.7803 26.2475 43.924 26.365 44.039 26.5157C44.1583 26.662 44.249 26.8304 44.3109 27.0211C44.3772 27.2072 44.4103 27.4023 44.4103 27.6062C44.4103 27.7968 44.3794 27.9874 44.3175 28.1781C44.26 28.3642 44.1738 28.5349 44.0589 28.6901C43.9439 28.8408 43.8002 28.9627 43.6278 29.0558C43.4554 29.1444 43.2586 29.1888 43.0376 29.1888C42.821 29.1888 42.6264 29.1467 42.454 29.0624C42.286 28.9738 42.1423 28.8563 42.023 28.71C41.908 28.5593 41.8196 28.3886 41.7577 28.198ZM5.63574 26.8681V29.9668H6.5509V25.2457H5.57606L4.17016 27.932L2.77753 25.2457H1.79605V29.9668H2.71121V26.8681L3.91816 29.1755H4.42879L5.63574 26.8681ZM13.1641 25.2457H12.2357L10.4982 29.9668H11.4399L11.871 28.7898H13.5156L13.9533 29.9668H14.8949L13.1641 25.2457ZM12.6999 26.1965L13.3498 28.1448H12.0235L12.6999 26.1965ZM19.324 25.2457L20.4912 26.9878L21.6517 25.2457H22.6464L21.0151 27.6395L22.5934 29.9668H21.5986L20.4912 28.2911L19.3771 29.9668H18.3757L19.954 27.6395L18.3226 25.2457H19.324ZM26.5425 25.2457V29.9668H27.4575V25.2457H26.5425ZM35.7015 29.9668V26.8681L34.4946 29.1755H33.984L32.777 26.8681V29.9668H31.8619V25.2457H32.8433L34.236 27.932L35.6419 25.2457H36.6167V29.9668H35.7015ZM50.3712 26.9346V29.9668H49.456V25.2457H50.1855L52.6193 28.3576V25.2523H53.5344V29.9668H52.7718L50.3712 26.9346ZM58.851 25.2457H57.9359V29.9668H61.2516V29.1622H58.851V25.2457ZM65.2305 25.2457H66.1456V29.9668H65.2305V25.2457ZM71.465 29.9668V26.9346L73.8656 29.9668H74.6282V25.2523H73.7131V28.3576L71.2793 25.2457H70.5498V29.9668H71.465ZM82.299 29.1622V29.9668H79.0297V25.2457H82.2394V26.0502H79.9448V27.1873H81.9277V27.932H79.9448V29.1622H82.299ZM86.3283 29.0092V29.9668H87.0578V29.0092H86.3283ZM91.3458 25.2457H93.4281C93.6447 25.2457 93.8437 25.29 94.0249 25.3786C94.2106 25.4673 94.3698 25.587 94.5024 25.7377C94.6395 25.8884 94.7434 26.0569 94.8141 26.2431C94.8893 26.4293 94.9268 26.6199 94.9268 26.8149C94.9268 27.0144 94.8915 27.2072 94.8207 27.3934C94.7544 27.5752 94.6571 27.7348 94.5289 27.8722C94.4007 28.0096 94.2504 28.116 94.078 28.1914L95.1523 29.9668H94.1443L93.1761 28.3842H92.2609V29.9668H91.3458V25.2457ZM92.2609 27.5796H93.4082C93.5231 27.5796 93.6248 27.5464 93.7132 27.4799C93.8017 27.4089 93.8724 27.3158 93.9255 27.2006C93.9785 27.0853 94.005 26.9568 94.005 26.8149C94.005 26.6642 93.9741 26.5334 93.9122 26.4226C93.8503 26.3074 93.7707 26.2165 93.6735 26.15C93.5806 26.0835 93.4789 26.0502 93.3684 26.0502H92.2609V27.5796ZM100.193 29.8138C100.458 29.9379 100.779 30 101.155 30C101.517 30 101.829 29.9402 102.09 29.8205C102.35 29.6963 102.563 29.5279 102.726 29.3151C102.894 29.0979 103.016 28.8474 103.091 28.5637C103.171 28.28 103.21 27.9764 103.21 27.6528V25.2457H102.302V27.6528C102.302 27.8434 102.282 28.0318 102.242 28.218C102.202 28.3997 102.138 28.5637 102.05 28.71C101.966 28.8563 101.849 28.9738 101.698 29.0624C101.552 29.1467 101.369 29.1888 101.148 29.1888C100.931 29.1888 100.75 29.1467 100.604 29.0624C100.458 28.9782 100.341 28.8629 100.253 28.7167C100.164 28.5704 100.1 28.4064 100.06 28.2246C100.025 28.0384 100.007 27.8478 100.007 27.6528V25.2457H99.0921V27.6528C99.0921 27.9586 99.1297 28.2534 99.2049 28.5371C99.2801 28.8164 99.3972 29.0669 99.5564 29.2885C99.7199 29.5102 99.9322 29.6853 100.193 29.8138Z" fill="#727275"/>
</g>
<defs>
<clipPath id="clip0_4353_3687">
<rect width="105" height="30" fill="white"/>
</clipPath>
</defs>
</svg>
