<svg width="120" height="75" viewBox="0 0 120 75" fill="none" xmlns="http://www.w3.org/2000/svg">
<path d="M17.2439 71.9935H14.878V64.7913L10.6261 69.1247L6.36592 64.7913V71.9935H4V58.9844L10.6261 65.7243L17.2439 58.9844V71.9935Z" fill="white"/>
<path d="M31.5887 59.4844V61.8909H24.4909V64.5416H29.4538V66.9481H24.4909V69.5904H31.5887V71.9969H22.125V59.4851H31.5887V59.4844Z" fill="white"/>
<path d="M45.9356 59.4844V61.8909H42.3871V71.9962H40.0212V61.8909H36.4727V59.4844H45.9363H45.9356Z" fill="white"/>
<path d="M58.8395 71.9952H56.2508L55.6162 70.5475H50.61L49.9754 71.9952H47.3867L53.1128 58.9336L58.8388 71.9952H58.8395ZM51.6648 68.1507H54.5622L53.1135 64.8461L51.6648 68.1507Z" fill="white"/>
<path d="M67.9821 71.9962C66.2852 71.9962 64.8365 71.3857 63.636 70.1653C62.4362 68.9449 61.8359 67.4713 61.8359 65.7445C61.8359 64.0177 62.4362 62.5358 63.636 61.3153C64.8358 60.0949 66.2845 59.4844 67.9821 59.4844C69.6797 59.4844 71.1367 60.0949 72.3365 61.3153L70.665 63.0155C69.9279 62.2658 69.0334 61.8909 67.9821 61.8909C66.9308 61.8909 66.0445 62.2658 65.3075 63.0155C64.5704 63.7653 64.2019 64.6752 64.2019 65.7445C64.2019 66.8139 64.5704 67.7154 65.3075 68.4651C66.05 69.2148 66.9418 69.5897 67.9821 69.5897C69.0224 69.5897 69.9224 69.2148 70.665 68.4651L72.3365 70.1653C71.1367 71.3857 69.6845 71.9962 67.9821 71.9962Z" fill="white"/>
<path d="M86.6958 61.3153C87.8956 62.5358 88.4959 64.0128 88.4959 65.7445C88.4959 67.4762 87.8956 68.9442 86.6958 70.1653C85.496 71.3857 84.0439 71.9962 82.3415 71.9962C80.6391 71.9962 79.1959 71.3857 77.9954 70.1653C76.7956 68.9449 76.1953 67.4713 76.1953 65.7445C76.1953 64.0177 76.7956 62.5358 77.9954 61.3153C79.1952 60.0949 80.6439 59.4844 82.3415 59.4844C84.0391 59.4844 85.496 60.0949 86.6958 61.3153ZM82.3408 69.5904C83.3866 69.5904 84.2784 69.2155 85.0154 68.4658C85.758 67.7105 86.13 66.8034 86.13 65.7452C86.13 64.687 85.7587 63.7744 85.0154 63.0246C84.2784 62.2693 83.3866 61.8909 82.3408 61.8909C81.295 61.8909 80.4094 62.2686 79.6661 63.0246C78.9291 63.7744 78.5605 64.6815 78.5605 65.7452C78.5605 66.809 78.9291 67.7098 79.6661 68.4658C80.4087 69.2155 81.3005 69.5904 82.3408 69.5904Z" fill="white"/>
<path d="M95.7409 71.9962H93.375V59.4844H99.1698C100.244 59.4844 101.164 59.8739 101.93 60.653C102.689 61.4258 103.07 62.3588 103.07 63.4519C103.07 64.3996 102.775 65.2396 102.187 65.9718C101.609 66.6929 100.876 67.1489 99.9839 67.3405L103.421 71.9962H100.464L97.0947 67.4272H95.7402V71.9962H95.7409ZM95.7409 65.0213H99.1698C99.5927 65.0213 99.9557 64.8675 100.258 64.5591C100.555 64.2569 100.704 63.8877 100.704 63.4519C100.704 63.0162 100.555 62.6554 100.258 62.3532C99.955 62.0455 99.5927 61.8909 99.1698 61.8909H95.7409V65.0213Z" fill="white"/>
<path d="M117.999 63.4512C117.999 64.55 117.619 65.4857 116.859 66.2585C116.093 67.0377 115.173 67.4272 114.1 67.4272H110.671V71.9962H108.305V59.4844H114.1C115.173 59.4844 116.094 59.8739 116.859 60.653C117.619 61.4258 117.999 62.3588 117.999 63.4519V63.4512ZM110.671 65.0206H114.1C114.522 65.0206 114.885 64.8668 115.188 64.5584C115.485 64.2562 115.633 63.887 115.633 63.4512C115.633 63.0155 115.485 62.6547 115.188 62.3525C114.885 62.0448 114.522 61.8902 114.1 61.8902H110.671V65.0206Z" fill="white"/>
<path opacity="0.13" d="M89.265 16.0393V16.0379L83.9666 19.3103V2L60.9964 16.1911L38.0268 2V19.3103L32.7284 16.0379V16.0393L25.0703 11.3094V26.7643L32.7284 31.4942V42.0799L51.6434 53.7616V32.8705L60.9964 38.6488L70.35 32.8698V53.7616L89.265 42.0792V31.4935L96.9231 26.7636V11.3087L89.265 16.0386V16.0393ZM43.3259 38.7271L41.0466 37.3193V31.0738L43.3259 32.4817V38.7271ZM75.6491 19.6984L60.9971 28.7505L46.345 19.6984V17.038L60.9971 26.0901L75.6491 17.038V19.6984ZM80.9475 37.3193L78.6682 38.7271V32.4817L80.9475 31.0738V37.3193Z" fill="white"/>
<path d="M79.8093 22.079L60.9981 33.7005L42.187 22.079V9.51953L60.9981 21.1411L79.8093 9.51953V22.079ZM36.8886 39.6998L47.4861 46.2446V30.1008L36.8886 23.556V39.6998ZM74.5102 46.2453L85.107 39.7005V23.5567L74.5102 30.1015V46.2453ZM89.1182 21.0802V26.6368L92.7658 24.3841V18.8275L89.1182 21.0802ZM29.2305 24.3841L32.878 26.6368V21.0802L29.2305 18.8275V24.3841Z" fill="white"/>
<path style="mix-blend-mode:color-dodge" opacity="0.1" d="M78.3262 12.2002V21.2299L60.9981 31.9353L43.6701 21.2299V12.2002L60.2287 22.43L60.9988 22.9056L61.7689 22.43L78.3276 12.2002M91.2827 21.5083V23.5358L90.6006 23.9568V21.9293L91.2827 21.5083ZM30.7129 21.5083L31.3949 21.9293V23.9568L30.7129 23.5358V21.5083ZM38.371 26.2368L46.003 30.9499V43.5645L38.371 38.8514V26.2368ZM83.6246 26.2368V38.8514L75.9933 43.5645V30.9499L83.6246 26.2368ZM79.8093 9.51953L60.9981 21.1411L42.187 9.51953V22.079L60.9981 33.7005L79.8093 22.079V9.51953ZM92.7658 18.8275L89.1182 21.0802V26.6368L92.7658 24.3841V18.8275ZM29.2305 18.8275V24.3841L32.878 26.6368V21.0802L29.2305 18.8275ZM85.1077 23.556L74.5109 30.1008V46.2445L85.1077 39.6998V23.556ZM36.8886 23.556V39.6998L47.4861 46.2445V30.1008L36.8886 23.556Z" fill="white"/>
<g opacity="0.2">
<path d="M79.802 9.51953L60.9908 21.1411L42.1797 9.51953V15.5538L60.9908 27.1753L79.802 15.5538V9.51953Z" fill="url(#paint0_linear_3444_526)"/>
<path d="M74.5039 30.0995L74.5046 36.1344L85.1014 29.5896V23.5547L74.5039 30.0995Z" fill="url(#paint1_linear_3444_526)"/>
<path d="M36.8828 29.5896L47.4803 36.1344V30.0995L36.8828 23.5547V29.5896Z" fill="url(#paint2_linear_3444_526)"/>
</g>
<defs>
<linearGradient id="paint0_linear_3444_526" x1="60.9908" y1="9.51953" x2="60.9908" y2="27.1753" gradientUnits="userSpaceOnUse">
<stop/>
<stop offset="1" stop-color="white"/>
</linearGradient>
<linearGradient id="paint1_linear_3444_526" x1="79.803" y1="23.5547" x2="79.803" y2="36.1344" gradientUnits="userSpaceOnUse">
<stop/>
<stop offset="1" stop-color="white"/>
</linearGradient>
<linearGradient id="paint2_linear_3444_526" x1="42.1812" y1="23.5547" x2="42.1812" y2="36.1344" gradientUnits="userSpaceOnUse">
<stop/>
<stop offset="1" stop-color="white"/>
</linearGradient>
</defs>
</svg>
