<?xml version="1.0" encoding="UTF-8"?>
<svg id="Layer_1" xmlns="http://www.w3.org/2000/svg" version="1.1" viewBox="0 0 141 40">
  <!-- Generator: Adobe Illustrator 29.8.2, SVG Export Plug-In . SVG Version: 2.1.1 Build 3)  -->
  <defs>
    <style>
      .st0 {
        fill: #727275;
        fill-rule: evenodd;
      }
    </style>
  </defs>
  <path class="st0" d="M44.1334518,37.0207293h-10.2055987c-.1436135-.0037983-.2667095-.1025784-.3016621-.2408747-.4460339-1.5850566-3.3243612-12.8529296-5.728538-21.7538603l-3.9785943,13.5740327c-.4110813,1.4232073-1.6329255,2.3927794-3.0029421,2.3927794h-8.6729733c11.0232034,0,10.1144164.0113973-.7294603.0113973-.0790243,0-.1580498-.0030401-.2363146-.0098785h-.0022795c-1.2712354-.1056208-2.3768232-1.0425198-2.7635886-2.3829033L2.5162494,8.1553959c-.006079-.0167169-.0106379-.0334338-.0136774-.0509101h0c-.006079-.0258348-.0091185-.0516695-.0091185-.0782649,0-.1785661.1451324-.3236974.323698-.3236974h10.2124376c.1420923.0037995.2644289.1018202.3009027.2393535l2.9816674,10.1714043c1.285674-4.742249,2.6602495-9.7861589,3.5728326-12.8696465.4209598-1.4361241,1.2826339-2.39354,2.6480916-2.39354h9.3720387c1.3700166,0,2.5926214.9695738,3.0029421,2.39278l9.5323668,31.3181414c.0098785.0303937.0159586.0607874.0174752.0911834.0022818.0144374.0030377.0288748.0030377.0440705,0,.1785638-.1451301.3236985-.3236985.3236985h-.0045589l.0007652.0007606ZM95.3422953,7.704803h3.0523368v3.9269248h2.4171c2.8175352,0,4.7863195,1.3358234,4.7863195,4.0477425s-1.9687843,4.0477425-4.7863195,4.0477425h-5.4724699V7.704803h.0030331ZM100.6126414,17.4005392c1.4779123,0,2.0364124-.752255,2.0364124-1.7210688s-.5683693-1.7149898-2.0364124-1.7149898h-2.2157368v3.4360598h2.2157368v-.0000012ZM109.9672026,19.725694h-3.0629759V7.7048042h3.0629759v12.0208898ZM83.8297468,7.704803v1.7210688c.7978467-1.1625768,2.3509838-2.0599642,4.1677972-2.0599642,3.0052262,0,5.5256559,2.3509884,5.5256559,6.3493397s-2.5918608,6.3493385-5.793126,6.3493385c-1.5128719.0341944-2.9550733-.6382769-3.9026089-1.81833v6.4230456h-3.0530974V7.7048019h3.0553699l.0000093.0000012ZM83.6306655,13.717528c0,1.9619435,1.4300411,3.4892493,3.3897075,3.4892493s3.3897075-1.527307,3.3897075-3.4892493-1.4300411-3.4900088-3.3897075-3.4900088-3.3843926,1.527307-3.3843926,3.4900088h-.0053149ZM70.6204432,7.704803h8.2162968v2.7635886h-5.1632087v9.2588212h-3.0530927V7.704803h.0000046ZM54.0168731,2.7611929h3.1024851v12.4570467c.1458907-.3624507.7279414-1.3320239.7279414-1.3320239l6.8576822-11.1250224h3.2483758v16.9660196h-3.1024851V7.1964605c-.1458907.3624501-.7279414,1.3320239-.7279414,1.3320239l-6.8576822,11.1972095h-3.2483758V2.7611929ZM135.9883985,29.4351081l-2.090359,5.3106183-2.0918802-5.3106206h-2.516636v7.569665h1.8304856v-4.791639l2.0303276,4.791639h1.4953967l2.0280458-4.791639v4.791639h1.8327674v-7.569665h-2.5189178l.0007699.0000023ZM124.1810264,35.4295949c-1.2112028,0-2.1936981-.9824906-2.1936981-2.1936981s.9824953-2.1936981,2.1936981-2.1936981,2.1936981.9824906,2.1936981,2.1936981c.0341897,1.1770131-.8913072,2.1587454-2.0683203,2.1936981-.0417957.0007606-.0835821.0007606-.1253778,0ZM80.9081027,31.1181842h2.2613262v5.901024h1.926228v-5.9010263h2.263608v-1.6807966h-6.4504016v1.6807966l-.0007606.0000023ZM106.3594174,32.2192118c.2720244-.9049864,1.1033095-1.5257858,2.0478028-1.5295864,1.0706317,0,1.7947747.5805296,1.972578,1.5295864h-4.02039.0000093ZM89.7581198,32.2192118c.2720244-.9049864,1.1033095-1.5257858,2.0478028-1.5295864,1.0691105,0,1.7947747.5805296,1.9718174,1.5295864h-4.02039.0007699ZM97.3323484,33.732842c-.0919394,1.1625757-.3214168,1.4216862-.7180583,1.4216862-.1975602.0037983-.3943598-.0227947-.5843233-.0775043l.0098785,1.9619412c.2226413.0554679.4521094.0797837.6815868.0737036,1.6352073,0,2.2476447-1.0546777,2.39354-3.3023248l.1831274-2.6442909h2.1716593v5.8387177h1.9345853v-7.5673855h-5.7475366l-.3206562,4.2954545h-.0045636l.0007606.0000023ZM76.8223664,35.4295949c-1.1625803,0-2.018172-.8419172-2.018172-2.1936981s.8875089-2.1936981,2.018172-2.1936981c.6884322,0,1.2841551.3206585,1.7590638,1.0387214l1.6511612-.967295c-.5501335-1.1762548-1.7431006-1.8965949-3.3904681-1.8965949-2.1557054,0-3.9884728,1.5949328-3.9884728,4.0067109s1.7431052,4.005948,3.9884728,4.005948c1.6215258,0,2.7058389-.7340192,3.4694959-2.03337l-1.5949328-.8715526c-.4589548.6420775-.9475357,1.1010277-1.8965926,1.1010277l.0015212.0045589.0007513-.0007583ZM67.7626288,35.4295949c-1.2112074,0-2.1936981-.9824906-2.1936981-2.1936981s.98173-2.1936981,2.1936981-2.1936981,2.1936981.9824906,2.1936981,2.1936981c.0341944,1.1770131-.8913072,2.1587454-2.0675644,2.1936981-.041791.0007606-.0835821.0007606-.1253778,0h-.000756ZM67.7626288,29.2238687c-2.07972,0-4.1419648,1.3464613-4.1419648,4.0059503s2.0637614,4.0059503,4.1419648,4.0059503,4.1442419-1.3457008,4.1442419-4.0059503-2.0637614-4.0059503-4.1442419-4.0059503ZM59.1337272,31.4851926h-2.7757442v-3.3615933h2.7757488c1.4057299,0,2.0478074.6717106,2.0478074,1.6807966s-.6420775,1.6807966-2.0478074,1.6807966h-.0000046ZM120.2647453,29.4373875h-2.2772802l-2.7217929,2.7514306v-2.7514306h-1.9239462v7.5818206h1.9239462v-3.1328788l2.7681521,3.1328788h2.3236301l-3.5773892-4.0667377,3.4862104-3.5150853-.0015305.0000023ZM13.8464321,29.9882817c.3913243-.7028649.6709512-1.4915937.8738321-2.2172534,1.0539171-3.7673573,2.0607236-7.5499081,3.0865265-11.3248632.9900896-3.6419807,1.9725803-7.2991572,3.0416954-10.9183421.249232-.8449578.7036255-1.6739582,1.6853556-1.6739582h1.7757784c.3320558.3875254.6496742.9239827.8882695,1.6686393.5265783,1.639005,1.3130276,4.410952,2.1974987,7.6502099l-4.439068,15.1438889c-.268989.9179026-1.050877,1.6716788-2.0402084,1.6716788h-7.0696821.0000023ZM11.2842044,30.9943276c.0053195,0,.0129174-.0007606.0227959-.0015189M124.1810264,29.2238687c-2.07972,0-4.143486,1.3464613-4.143486,4.0059503s2.063766,4.0059503,4.143486,4.0059503,4.1503221-1.3358223,4.1503221-4.0059503-2.0645266-4.0059503-4.1442466-4.0059503M108.4695241,29.2276671c-2.1936981,0-3.9884728,1.5949328-3.9884728,4.0044314s1.7947747,4.0067086,3.8988152,4.0067086c1.6671152,0,2.7217929-.6261189,3.4854498-1.9269886l-1.5295864-.7636523c-.4741481.5980047-.9011857,1.0394797-1.926228,1.0394797-1.1306631,0-1.9558634-.7340192-2.0781988-1.8965949h5.8470727v-.6717106c0-2.2157345-1.5295864-3.7886308-3.6989733-3.7886308M91.8682358,29.2276671c-2.1929375,0-3.9877122,1.5949328-3.9877122,4.0044314s1.7947747,4.0067086,3.8980546,4.0067086c1.6671152,0,2.720281-.6261189,3.4862104-1.9269886l-1.5288258-.7636523c-.4749087.5980047-.9011857,1.0394797-1.9269886,1.0394797-1.1306631,0-1.9558634-.7340192-2.07972-1.8965949h5.8387154v-.6717106c0-2.2157345-1.5295864-3.7886308-3.6989733-3.7886308M59.1960358,26.320465h-4.8478675v10.7010249h2.018172v-3.728604h2.8433723c2.4148182,0,4.0067086-1.2385611,4.0067086-3.4862104s-1.5956934-3.4862104-4.0067086-3.4862104M11.2842044,30.9943276c.0053195,0,.0129174-.0007606.0227959-.0015189"/>
</svg>