<svg width="55" height="30" viewBox="0 0 55 30" fill="none" xmlns="http://www.w3.org/2000/svg">
<g clip-path="url(#clip0_4353_3681)">
<path fill-rule="evenodd" clip-rule="evenodd" d="M6.37163 3.60044V7.20087H7.74144H9.11125L9.09667 5.58282C9.08275 4.03463 9.08583 3.95739 9.16884 3.79404C9.32626 3.48415 9.69025 3.49521 9.85179 3.81479C9.92001 3.94972 9.92764 4.12923 9.92768 5.60425L9.92777 7.24373H11.2938H12.6599L12.6592 5.38994C12.6584 3.38728 12.6403 3.18223 12.4231 2.71349C12.0096 1.82075 11.1467 1.37905 10.2614 1.60699C9.95743 1.68522 9.6605 1.83086 9.39235 2.03317C9.28094 2.11723 9.1802 2.18598 9.16845 2.18598C9.15674 2.18598 9.14715 1.69413 9.14715 1.09299V0H7.75939H6.37163V3.60044ZM2.12161 1.00726V1.75736H1.86141H1.6012V2.42172V3.08609H1.88309H2.16498V4.54131C2.16498 6.02841 2.18862 6.30736 2.33958 6.6008C2.48135 6.8764 2.76783 7.0605 3.2058 7.15732C3.51393 7.22547 4.82541 7.26379 5.47536 7.22367L5.98132 7.19243V6.3456V5.49876L5.65325 5.47425C5.30947 5.44853 5.15591 5.38218 5.06128 5.21849C5.02143 5.14952 5.00148 4.83213 4.99129 4.10407L4.97698 3.08609H5.37075H5.76449V2.42172V1.75736H5.37418H4.98387V1.00726V0.257174H3.55274H2.12161V1.00726ZM15.3921 1.62603C14.7489 1.75208 14.4661 1.87115 14.0162 2.20544C13.3353 2.71126 12.8754 3.68517 12.8775 4.61662C12.8805 5.93022 13.6711 6.90173 14.9842 7.20524C15.2756 7.27258 15.5726 7.29975 16.1944 7.31591C16.9234 7.3349 17.0708 7.32667 17.4737 7.24472C18.3157 7.0734 18.9408 6.68807 19.2537 6.14736C19.511 5.70292 19.6541 5.09684 19.4868 5.16032C19.449 5.17464 18.8173 5.18634 18.083 5.18634H16.7479L16.7248 5.35659C16.6924 5.59546 16.5349 5.82735 16.3545 5.90184C16.215 5.95945 16.1933 5.95786 16.09 5.88238C16.0282 5.83716 15.9521 5.74895 15.9211 5.68642C15.8472 5.53738 15.783 5.14155 15.7826 4.83273L15.7824 4.58627H17.6906H19.5987V4.36969C19.5987 3.77351 19.2718 2.97002 18.8667 2.57058C18.0852 1.80013 16.585 1.3923 15.3921 1.62603ZM16.2174 3.01232C16.011 3.11553 15.7824 3.58903 15.7824 3.91324C15.7824 4.0228 15.795 4.0357 15.88 4.0132C15.9337 3.99901 16.1971 3.9871 16.4654 3.9868C16.9511 3.9862 16.9533 3.98572 16.9533 3.88354C16.9533 3.82709 16.9141 3.6553 16.8661 3.50181C16.8024 3.29813 16.7376 3.18686 16.6261 3.09012C16.4595 2.94558 16.3808 2.93058 16.2174 3.01232ZM24.8787 3.58903L21.2467 3.60091V4.34384C21.2467 4.75245 21.2596 5.55277 21.2753 6.12237L21.3039 7.15801H25.374H29.4441L29.4328 5.36851L29.4215 3.579L28.9661 3.5781C28.7157 3.57759 26.8764 3.58252 24.8787 3.58903ZM46.8769 13.8445V24.0029H50.9284H54.98L54.9941 19.7488C55.002 17.4091 55.002 12.8378 54.9941 9.59045L54.98 3.68616H50.9284H46.8769V13.8445ZM43.8195 7.97736C42.9902 8.09644 42.0219 8.46192 41.4076 8.88776C40.3354 9.63112 39.6592 10.5578 39.2881 11.7925C39.2163 12.0314 39.1575 12.2341 39.1575 12.2428C39.1575 12.2515 39.0613 12.2586 38.9437 12.2586H38.73L38.6844 12.0336C38.6319 11.7745 38.0733 8.55832 38.0733 8.51529C38.0733 8.4996 36.4926 8.48674 34.5605 8.48674H31.0478V16.2448V24.0029H35.7371H40.4264L40.3961 22.5777C40.3408 19.9828 40.5167 18.4473 41.0023 17.288C41.5847 15.8975 42.6632 15.1654 44.1448 15.155C44.3952 15.1533 44.7513 15.1671 44.9362 15.1858L45.2723 15.2197V11.601V7.98238L45.1747 7.95653C45.0344 7.91937 44.126 7.93334 43.8195 7.97736ZM6.26321 7.99897C4.60571 8.23154 3.28378 8.87537 2.14221 10.0061C1.13938 10.9994 0.565065 11.9976 0.180265 13.4159L0.0232744 13.9945L0.0056238 15.2161C-0.0137181 16.5568 0.00722839 16.7708 0.223676 17.445C0.536789 18.4201 1.07424 19.2835 1.83647 20.0357C2.42202 20.6136 2.96086 20.9972 3.70453 21.3657C4.96171 21.9885 6.02647 22.1858 7.73771 22.113C9.73882 22.0278 11.1405 21.5434 11.5242 20.8043L11.6102 20.6386L11.6413 20.8847C11.6962 21.3185 11.6382 23.4257 11.5601 23.8387C11.3799 24.791 11.0431 25.2556 10.4639 25.3509C10.1852 25.3967 9.96437 25.3162 9.75573 25.0925C9.4663 24.7821 9.27726 24.2617 9.27726 23.7751V23.5225L4.65866 23.5377C0.829867 23.5502 0.0400143 23.5627 0.0400143 23.6104C0.0399709 23.6421 0.0800859 23.8639 0.129178 24.1033C0.782033 27.2902 3.28568 29.2024 7.71603 29.8978C8.40887 30.0066 11.3826 30.0381 12.1829 29.9452C13.3904 29.805 14.5743 29.4277 15.917 28.7551C17.9244 27.7495 19.0492 26.3427 19.3787 24.4254C19.5782 23.2645 19.6208 21.0017 19.5774 13.8767L19.5447 8.5296H16.1275H12.7102L12.6865 8.64747C12.6735 8.71228 12.6299 9.03864 12.5896 9.37262L12.5164 9.97994L12.1653 9.67908C11.2378 8.88429 10.1637 8.34285 9.02568 8.09652C8.6702 8.01958 8.4338 8.00355 7.49919 7.9931C6.89096 7.98628 6.33477 7.98889 6.26321 7.99897ZM21.4036 11.5621C21.3762 14.3609 21.3575 15.7612 21.2641 21.9991L21.2341 24.0029H25.3386H29.4432L29.4205 19.8345C29.4081 17.5419 29.3862 14.0633 29.372 12.1041L29.346 8.54199L28.8891 8.51439C28.6378 8.49917 26.8575 8.48674 24.933 8.48674H21.4337L21.4036 11.5621ZM10.0654 11.465C9.4061 11.6683 8.99446 12.3606 8.79943 13.594C8.77207 13.7672 8.73933 14.4296 8.72666 15.0661C8.70138 16.3364 8.73607 16.6693 8.95816 17.2869C9.18484 17.9173 9.64441 18.5442 10.0178 18.7325C10.576 19.014 11.1152 18.7262 11.5103 17.9359C11.8927 17.1709 12.0214 16.4352 12.0197 15.0232C12.0179 13.4316 11.7173 12.3036 11.1455 11.7426C10.8077 11.4111 10.4981 11.3316 10.0654 11.465Z" fill="#727275"/>
</g>
<defs>
<clipPath id="clip0_4353_3681">
<rect width="55" height="30" fill="white"/>
</clipPath>
</defs>
</svg>
