<svg width="212" height="59" viewBox="0 0 212 59" fill="none" xmlns="http://www.w3.org/2000/svg">
<path d="M178.5 2.12982V56.8325H212V53.2226H186.562V25.9314H211.23V22.3214H186.562V5.73976H212V2.12982H178.5ZM143.519 2.02151C141.016 2.7074 138.682 3.67006 136.504 4.90947C134.326 6.14889 132.353 7.641 130.572 9.3858C128.791 11.1306 127.275 13.0559 125.999 15.1737C124.724 17.2916 123.749 19.5779 123.051 22.0326C122.353 24.4874 122.004 27.0264 122.004 29.6496C122.004 32.2729 122.353 34.7878 123.051 37.2064C123.749 39.6251 124.736 41.8873 125.999 43.9931C127.263 46.0989 128.779 48.0242 130.572 49.745C132.353 51.4778 134.326 52.9578 136.504 54.2213C138.682 55.4728 141.016 56.4354 143.519 57.1093C146.022 57.7831 148.633 58.1201 151.365 58.1201C155.877 58.1201 160.053 57.3499 163.879 55.7977C167.706 54.2574 171.075 52.1035 173.963 49.3599L171.857 46.6765C170.726 47.9039 169.439 48.9989 167.971 49.9495C166.515 50.9002 164.962 51.7184 163.314 52.3802C161.665 53.0421 159.969 53.5475 158.2 53.8844C156.431 54.2333 154.686 54.4018 152.977 54.4018C149.392 54.4018 146.215 53.752 143.447 52.4404C140.667 51.1288 138.345 49.3479 136.468 47.0857C134.591 44.8355 133.171 42.2122 132.196 39.216C131.221 36.2318 130.74 33.043 130.74 29.6496C130.74 26.1961 131.234 22.9472 132.208 19.9389C133.183 16.9306 134.627 14.2833 136.516 12.0331C138.405 9.7829 140.74 8.00199 143.507 6.70241C146.287 5.40283 149.464 4.75304 153.038 4.75304C154.71 4.75304 156.359 4.93354 158.007 5.2825C159.656 5.63146 161.232 6.11279 162.76 6.71444C164.277 7.3161 165.733 8.02606 167.104 8.86838C168.476 9.69867 169.728 10.6012 170.859 11.5518L172.916 8.83228C170.089 6.37752 166.864 4.46425 163.218 3.08044C159.572 1.69662 155.613 0.998698 151.341 0.998698C148.633 0.998698 146.022 1.33562 143.519 2.02151ZM117.01 2.12982H108.912V56.8325H117.01V2.12982ZM65.6529 52.3802C63.0778 51.0807 60.9238 49.2998 59.1911 47.0496C57.4583 44.7994 56.1587 42.14 55.2683 39.0836C54.3778 36.0272 53.9446 32.7542 53.9446 29.2405C53.9446 25.7629 54.3778 22.5019 55.2562 19.4576C56.1226 16.4252 57.4342 13.7779 59.155 11.5518C60.8877 9.32564 63.0296 7.55676 65.5927 6.26921C68.1558 4.98167 71.14 4.33189 74.5574 4.33189C77.9146 4.33189 80.8868 4.98167 83.4619 6.26921C86.037 7.55676 88.1909 9.31361 89.9237 11.5518C91.6565 13.7779 92.9561 16.4252 93.8465 19.4576C94.737 22.5019 95.1702 25.7629 95.1702 29.2405C95.1702 32.7542 94.725 36.0272 93.8225 39.0836C92.932 42.14 91.6084 44.7873 89.8635 47.0496C88.1187 49.2998 85.9648 51.0807 83.4018 52.3802C80.8387 53.6798 77.8785 54.3296 74.5454 54.3296C71.2001 54.3296 68.228 53.6798 65.6529 52.3802ZM82.2827 56.8686C84.7615 56.1827 87.0839 55.2201 89.2378 53.9807C91.3918 52.7412 93.3652 51.2491 95.1461 49.5043C96.927 47.7595 98.4432 45.8342 99.7187 43.7164C100.982 41.5985 101.969 39.3122 102.667 36.8815C103.365 34.4388 103.714 31.8998 103.714 29.2525C103.714 26.6534 103.365 24.1384 102.667 21.7077C101.969 19.2771 100.982 17.0148 99.7187 14.909C98.4552 12.8032 96.927 10.8779 95.1461 9.13311C93.3652 7.3883 91.3918 5.90822 89.2378 4.65678C87.0839 3.41736 84.7615 2.46674 82.2827 1.78085C79.8038 1.107 77.2288 0.770065 74.5574 0.770065C71.8499 0.770065 69.2628 1.11903 66.7719 1.79289C64.2811 2.47878 61.9467 3.44143 59.7807 4.66881C57.6027 5.89619 55.6292 7.37627 53.8483 9.12107C52.0674 10.8659 50.5392 12.7912 49.2637 14.897C47.9882 17.0028 47.0015 19.277 46.3036 21.6957C45.6056 24.1264 45.2567 26.6413 45.2567 29.2405C45.2567 31.8878 45.6056 34.4268 46.3036 36.8695C47.0015 39.3122 47.9882 41.5865 49.2637 43.7043C50.5392 45.8222 52.0674 47.7595 53.8483 49.4923C55.6292 51.2371 57.6027 52.7172 59.7807 53.9686C61.9587 55.208 64.2811 56.1707 66.7719 56.8566C69.2628 57.5425 71.862 57.8794 74.5574 57.8794C77.2288 57.8914 79.8159 57.5545 82.2827 56.8686ZM21.8642 56.8325H30.5522L28.4945 51.8628L49.4081 2.12982H45.2446L26.4729 46.7487L8.47134 2.12982H0L21.8642 56.8325Z" fill="#727275"/>
<path d="M206.585 46.845C206.717 46.4961 206.91 46.1712 207.162 45.9185C207.415 45.6537 207.716 45.4492 208.077 45.2927C208.426 45.1484 208.847 45.0641 209.292 45.0641C209.509 45.0641 209.725 45.0882 209.942 45.1363C210.159 45.1845 210.363 45.2326 210.568 45.3048C210.772 45.389 210.953 45.4733 211.133 45.5695C211.314 45.6658 211.47 45.7861 211.615 45.8944L211.891 45.5575C211.518 45.2687 211.097 45.028 210.628 44.8596C210.147 44.6911 209.629 44.5948 209.076 44.5948C208.727 44.5948 208.39 44.6309 208.053 44.7031C207.728 44.7874 207.415 44.8957 207.138 45.0401C206.85 45.1845 206.597 45.3529 206.368 45.5575C206.14 45.762 205.935 45.9907 205.767 46.2434C205.598 46.4961 205.478 46.7608 205.382 47.0737C205.285 47.3625 205.249 47.6753 205.249 48.0002C205.249 48.3853 205.297 48.7342 205.394 49.0591C205.49 49.372 205.634 49.6608 205.815 49.9255C205.995 50.1902 206.212 50.4068 206.465 50.5994C206.717 50.7919 206.982 50.9483 207.307 51.0807C207.608 51.201 207.945 51.3093 208.306 51.3695C208.655 51.4417 209.016 51.4658 209.401 51.4658H211.94V47.1098H210.881V51.0085H209.822C209.304 51.0085 208.811 50.9363 208.39 50.7919C207.957 50.6475 207.608 50.455 207.319 50.1902C207.03 49.9255 206.801 49.6127 206.645 49.2517C206.489 48.8786 206.404 48.4695 206.404 48.0122C206.38 47.5911 206.452 47.194 206.585 46.845ZM200.544 46.2434L202.325 50.1421H198.811L200.544 46.2434ZM201.014 44.7392H199.894L200.279 45.6056L197.668 51.4537H198.246L198.631 50.5873H202.542L202.939 51.4537H204.046L201.014 44.7392ZM189.907 44.7392H188.667L189.053 45.1604V51.4417H189.534V45.7019L192.049 48.4454L194.576 45.7019V51.4417H195.635V44.7392H194.576V45.028L192.35 47.4467L189.907 44.7392Z" fill="#727275"/>
<path d="M31.5505 3.73028C31.6828 3.82655 31.8032 3.94688 31.8754 4.11534C31.9596 4.28381 32.0077 4.45227 32.0438 4.66887C32.0679 4.87343 32.104 5.09003 32.104 5.31866V5.57135H29.6492C29.6492 5.30662 29.6733 5.06596 29.7335 4.82529C29.7936 4.5726 29.8658 4.36804 29.9862 4.19958C30.0945 4.01908 30.2389 3.87468 30.4073 3.76638C30.5758 3.65808 30.7924 3.59792 31.021 3.59792C31.2376 3.58588 31.4181 3.63402 31.5505 3.73028ZM29.9741 3.29709C29.6613 3.46555 29.3845 3.67011 29.1679 3.92281C28.9513 4.1755 28.7829 4.48837 28.6746 4.82529C28.5663 5.17426 28.5061 5.52321 28.5061 5.88421C28.5061 6.3174 28.5663 6.70246 28.6866 7.05143C28.8069 7.40039 28.9874 7.67715 29.2521 7.91781C29.5048 8.14644 29.8297 8.32694 30.2268 8.47134C30.6239 8.59167 31.0932 8.66387 31.6227 8.66387H32.838V8.18254H31.6347C31.2617 8.18254 30.9608 8.11034 30.7202 7.96595C30.4675 7.83358 30.2629 7.65308 30.1185 7.43649C29.9501 7.21989 29.8418 7.0033 29.7816 6.73857C29.7094 6.48587 29.6733 6.24521 29.6733 6.04065H33.2592V5.76388C33.2592 5.40288 33.2231 5.06596 33.1509 4.74106C33.0787 4.41617 32.9584 4.13941 32.7779 3.88671C32.5974 3.63401 32.3808 3.45352 32.104 3.29709C31.8272 3.14066 31.5023 3.08049 31.1052 3.08049C30.66 3.06846 30.299 3.14066 29.9741 3.29709ZM23.9696 0H22.7903V8.6398H23.9696V4.06721C24.2945 3.91078 24.5953 3.81451 24.86 3.76638C25.1248 3.70622 25.3534 3.69418 25.5459 3.69418C25.6663 3.69418 25.7625 3.71825 25.8468 3.76638C25.931 3.80248 25.9791 3.87468 26.0393 3.93484C26.0754 4.00704 26.1235 4.09127 26.1356 4.16347C26.1476 4.2477 26.1596 4.34397 26.1596 4.4282V8.62777H27.3389V4.23567C27.3389 3.81451 27.2426 3.51368 27.0501 3.32115C26.8575 3.12862 26.5808 3.03236 26.2078 3.03236C26.0513 3.03236 25.9069 3.04439 25.7505 3.05642C25.582 3.06845 25.4256 3.11659 25.2451 3.15269C25.0646 3.18879 24.86 3.26099 24.6555 3.33319C24.4509 3.40539 24.2223 3.50165 23.9696 3.60994V0ZM21.5389 3.17675H20.7567V1.04689L19.6497 1.38381V3.16472H18.8916V3.68215H19.6497V8.6398H20.7567V3.68215H21.5389C21.5389 3.69418 21.5389 3.17675 21.5389 3.17675Z" fill="#727275"/>
</svg>
