<svg width="166" height="30" viewBox="0 0 166 30" fill="none" xmlns="http://www.w3.org/2000/svg">
<g clip-path="url(#clip0_4353_3696)">
<mask id="mask0_4353_3696" style="mask-type:luminance" maskUnits="userSpaceOnUse" x="0" y="0" width="166" height="30">
<path d="M166 0H0V30H166V0Z" fill="white"/>
</mask>
<g mask="url(#mask0_4353_3696)">
<path d="M106.939 0.398699C104.314 1.72815 104.368 6.03302 107.02 7.52074C109.51 8.94515 112 7.04594 112 3.78562C112 0.936809 109.348 -0.835787 106.939 0.398699ZM109.321 3.05759C109.889 3.56405 109.916 3.75397 109.618 4.482C109.375 5.08342 109.104 5.30499 108.509 5.30499C106.668 5.30499 106.668 2.89933 108.509 2.48783C108.617 2.48783 108.969 2.70941 109.321 3.05759Z" fill="#727275"/>
<path d="M1.46612 4.39703C0.749258 5.13477 1.0921 6.00082 3.8972 10.8122C5.45559 13.4424 6.7023 15.7198 6.7023 15.8481C6.7023 15.9764 5.42442 18.318 3.86603 21.0444C-0.528621 28.7105 -0.590956 28.903 0.811593 29.6728C1.65312 30.154 7.10748 30.0898 7.69967 29.5766C7.94901 29.3841 9.19572 27.3634 10.4113 25.086C12.0008 22.1991 12.8424 21.0123 13.2475 21.0123C14.0579 21.0123 14.1826 21.6218 14.1826 25.4388C14.1826 27.3313 14.3384 29.0954 14.4942 29.3521C14.7124 29.7049 15.5228 29.8653 17.6734 29.9294C20.4161 30.0363 21.8498 28.4325 21.9745 25.118C22.1303 21.4935 22.1927 21.1727 22.7537 21.0765C23.2524 21.0123 23.8134 21.7822 25.6835 25.1822C26.9302 27.4917 28.2392 29.5124 28.5509 29.6728C28.8626 29.8653 30.3275 29.9936 31.8547 29.9936C34.8156 29.9936 36 29.5445 36 28.4219C36 28.069 34.5351 25.2463 32.7274 22.1029C30.9197 18.9274 29.4548 16.1047 29.4548 15.816C29.4548 15.5274 30.7326 13.0896 32.291 10.4273C34.8468 6.06497 35.0961 5.48761 34.7845 4.78194C34.4416 4.01212 34.3793 3.98004 31.1067 4.07627L27.7717 4.1725L25.59 8.11783C23.8134 11.3254 23.2836 12.0311 22.7537 11.9669C22.1927 11.8707 22.1303 11.582 21.9745 8.34236C21.881 6.38573 21.694 4.62156 21.5693 4.39703C21.2265 3.88382 15.0864 3.85174 14.5566 4.39703C14.3072 4.65364 14.1826 5.9046 14.1826 7.8933C14.1826 11.4216 14.0579 12.0311 13.2164 12.0311C12.8424 12.0311 12.0943 11.0367 10.7853 8.72727C7.88668 3.59513 8.41653 4.01212 4.89457 4.01212C2.931 4.01212 1.71546 4.14042 1.46612 4.39703Z" fill="#727275"/>
<path d="M44.6493 4.70617C44.1517 5.57284 37 27.721 37 28.4914C37 29.4864 38.2438 30 40.7313 30C42.1617 30 43.3122 29.8395 43.592 29.5827C43.8719 29.3901 44.3072 28.4272 44.5871 27.4642C44.8669 26.5333 45.2401 25.5383 45.4266 25.3136C45.9241 24.7037 52.9515 24.6716 53.3868 25.2494C53.5734 25.4741 53.9465 26.4691 54.2575 27.4321C54.5373 28.3951 55.0037 29.3901 55.2836 29.5827C55.5945 29.8395 56.7139 30 58.1754 30C60.041 30 60.7251 29.8716 61.2848 29.3901L62 28.7802L58.3308 17.1284C56.3097 10.7086 54.444 5.12346 54.2264 4.70617C53.791 4.0321 53.6045 4 49.4378 4C45.2711 4 45.0846 4.0321 44.6493 4.70617ZM50.6194 15.0099C51.1791 16.9679 51.6144 18.7975 51.6144 18.9901C51.6144 19.279 50.9303 19.4074 49.2512 19.4074C47.4789 19.4074 46.9192 19.3111 47.0435 18.9901C47.1057 18.7975 47.6343 16.9679 48.2251 14.9778C48.7848 13.0198 49.3445 11.3827 49.4378 11.3827C49.5311 11.3827 50.0597 13.0198 50.6194 15.0099Z" fill="#727275"/>
<path d="M64.3115 4.60963C64.1266 5.02674 64.0034 9.48664 64.0034 16.9626C64.0034 30.8557 63.7569 29.9893 67.4849 29.9893C70.7508 29.9893 70.9049 29.8289 71.0898 25.754L71.2438 22.4492L74.3865 22.2246C78.0837 21.9679 79.8707 21.2621 81.781 19.3369C83.5372 17.5401 84.1534 15.5829 83.9685 12.3743C83.7836 9.45455 83.075 7.75402 81.2264 6.14974C79.1005 4.2246 77.9605 4 70.9049 4C65.0201 4 64.6196 4.03209 64.3115 4.60963ZM76.0502 10.7059C76.7589 11.4759 76.9437 11.9251 76.9437 13.0481C76.9437 15.4866 75.5265 16.6417 72.7535 16.4492L71.2438 16.353L71.1514 13.4973C71.0898 11.9251 71.1206 10.4492 71.213 10.1925C71.3362 9.90375 71.9833 9.77541 73.2465 9.77541C74.9411 9.77541 75.2492 9.87167 76.0502 10.7059Z" fill="#727275"/>
<path d="M89.7997 4.34059C89.5796 4.66214 84.2029 20.9967 82.0648 27.9743C81.9076 28.4566 82.0334 28.8746 82.4736 29.3248C83.0396 29.9035 83.5426 30 85.5235 30C86.8126 30 88.1647 29.8714 88.4791 29.6785C88.7935 29.5177 89.3595 28.4566 89.7368 27.299C90.0827 26.1736 90.6172 25.1446 90.8687 25.0482C91.1517 24.9517 92.9125 24.8553 94.799 24.8553C98.6664 24.8553 98.6979 24.8874 99.5154 27.717C100.081 29.7106 100.836 30.0965 103.886 29.9357C106.527 29.8392 107.03 29.5498 106.999 28.2315C106.999 27.8778 105.238 22.315 103.163 15.852L99.3267 4.11551L94.7361 4.01904C91.3089 3.95473 90.0512 4.0512 89.7997 4.34059ZM95.8366 15.1124C96.4655 17.2668 96.9685 19.0996 96.9685 19.196C96.9685 19.2925 95.8995 19.389 94.6104 19.389C92.9439 19.389 92.2522 19.2603 92.2522 18.971C92.2522 18.778 92.7553 16.9452 93.3527 14.9195C93.9501 12.9259 94.4531 11.1895 94.4531 11.0931C94.4531 10.5786 94.799 11.5754 95.8366 15.1124Z" fill="#727275"/>
<path d="M117.299 4.83422C117.121 5.31549 117.003 10.4491 117.003 17.187C117.003 30.8553 116.767 29.989 120.401 29.989C123.651 29.989 123.798 29.7644 123.798 24.9196C123.798 22.4169 123.917 21.0052 124.153 20.7485C124.389 20.4918 125.571 20.3635 127.521 20.3635C130.328 20.3635 130.594 20.2993 131.007 19.6576C131.687 18.5988 131.628 16.032 130.889 15.2298C130.387 14.6844 129.914 14.5881 127.373 14.5881C123.887 14.5881 123.739 14.4598 123.858 11.7967L123.946 9.93577L128.585 9.77534C131.835 9.67909 133.341 9.48657 133.607 9.19781C134.169 8.58819 134.11 4.70588 133.548 4.32085C133.312 4.12834 129.707 4 125.335 4H117.594L117.299 4.83422Z" fill="#727275"/>
<path d="M137.47 4.32077C137.067 4.57738 137.005 6.34161 137.005 16.8307C137.005 31.0407 136.726 29.9822 140.354 29.9822C143.981 29.9822 143.671 30.4634 143.671 22.0592C143.671 18.0817 143.733 14.874 143.826 14.9703C143.919 15.0665 145.16 18.2742 146.617 22.1234C148.043 25.9726 149.408 29.2444 149.625 29.3727C150.245 29.7897 153.16 29.7256 153.501 29.2444C153.687 29.052 155.02 25.6839 156.477 21.8026L159.144 14.7457L159.175 21.8668C159.175 30.2388 159.051 29.9822 162.648 29.9822C166.244 29.9822 165.996 30.7841 165.996 16.959C165.996 9.48513 165.872 5.02646 165.686 4.60946C165.376 4.06415 165.004 4 161.562 4C159.144 4 157.625 4.12831 157.407 4.35284C157.221 4.54531 155.826 7.81714 154.338 11.5701C152.818 15.3552 151.485 18.3062 151.361 18.1779C151.237 18.0496 149.904 14.842 148.415 11.0569L145.687 4.16038L141.811 4.06415C139.672 4.03208 137.718 4.12831 137.47 4.32077Z" fill="#727275"/>
</g>
</g>
<defs>
<clipPath id="clip0_4353_3696">
<rect width="166" height="30" fill="white"/>
</clipPath>
</defs>
</svg>
